<?xml version="1.0" standalone="no"?>
<!DOCTYPE svg PUBLIC "-//W3C//DTD SVG 20010904//EN"
 "http://www.w3.org/TR/2001/REC-SVG-20010904/DTD/svg10.dtd">
<svg version="1.0" xmlns="http://www.w3.org/2000/svg"
 width="1920.000000pt" height="1920.000000pt" viewBox="0 0 1920.000000 1920.000000"
 preserveAspectRatio="xMidYMid meet">

<g transform="translate(0.000000,1920.000000) scale(0.100000,-0.100000)"
fill="#000000" stroke="none">
<path d="M110 9600 l0 -2220 9490 0 9490 0 0 2220 0 2220 -9490 0 -9490 0 0
-2220z m2870 1490 c0 -6 40 -10 100 -10 60 0 100 -4 100 -10 0 -6 27 -10 60
-10 33 0 60 -4 60 -10 0 -5 22 -10 49 -10 28 0 53 -4 56 -10 3 -5 24 -10 46
-10 21 0 39 -4 39 -10 0 -5 18 -10 40 -10 22 0 40 -4 40 -10 0 -5 14 -10 30
-10 17 0 30 -4 30 -10 0 -5 14 -10 30 -10 17 0 30 -4 30 -10 0 -5 14 -10 30
-10 17 0 30 -4 30 -10 0 -5 14 -10 30 -10 17 0 30 -4 30 -10 0 -5 9 -10 20
-10 11 0 20 -4 20 -10 0 -5 14 -10 30 -10 17 0 30 -4 30 -10 0 -5 6 -10 13
-10 21 0 77 -30 77 -41 0 -5 -7 -12 -15 -15 -8 -4 -15 -15 -15 -25 0 -10 -9
-24 -20 -31 -11 -7 -20 -20 -20 -28 0 -9 -9 -22 -20 -30 -11 -8 -20 -22 -20
-32 0 -10 -4 -18 -10 -18 -5 0 -10 -8 -10 -18 0 -10 -9 -24 -20 -32 -11 -8
-20 -21 -20 -30 0 -9 -9 -22 -20 -30 -11 -8 -20 -21 -20 -30 0 -9 -9 -22 -20
-30 -11 -8 -20 -21 -20 -30 0 -9 -9 -22 -20 -30 -11 -8 -20 -22 -20 -32 0 -10
-4 -18 -10 -18 -5 0 -10 -11 -10 -24 0 -16 -7 -27 -20 -31 -12 -4 -20 -15 -20
-30 0 -12 -6 -25 -14 -28 -8 -3 -22 -22 -31 -41 -10 -20 -21 -36 -26 -36 -5 0
-9 -9 -9 -20 0 -11 -4 -20 -10 -20 -5 0 -10 -9 -10 -20 0 -13 -7 -20 -20 -20
-11 0 -20 5 -20 10 0 6 -9 10 -20 10 -11 0 -20 5 -20 10 0 6 -8 10 -18 10 -10
0 -24 9 -32 20 -8 11 -22 20 -32 20 -10 0 -18 5 -18 10 0 6 -9 10 -20 10 -11
0 -20 5 -20 10 0 6 -11 10 -24 10 -24 0 -108 39 -114 53 -2 4 -17 7 -32 7 -17
0 -33 7 -39 17 -8 16 -30 18 -201 18 -171 0 -193 -2 -204 -17 -7 -10 -21 -18
-30 -18 -12 0 -16 -10 -16 -46 0 -47 16 -74 44 -74 9 0 16 -4 16 -10 0 -5 7
-10 15 -10 8 0 30 -9 50 -20 20 -11 44 -20 55 -20 10 0 22 -4 25 -10 3 -5 17
-10 30 -10 13 0 27 -4 30 -10 3 -5 21 -10 40 -10 19 0 37 -4 40 -10 3 -5 21
-10 40 -10 19 0 37 -4 40 -10 3 -5 19 -10 36 -10 16 0 29 -4 29 -10 0 -5 18
-10 40 -10 28 0 40 -4 40 -14 0 -10 19 -16 61 -21 37 -4 63 -12 66 -21 3 -8
18 -14 34 -14 16 0 29 -4 29 -9 0 -5 25 -12 56 -16 33 -4 57 -12 61 -21 3 -8
14 -14 24 -14 10 0 19 -4 19 -10 0 -5 9 -10 20 -10 11 0 20 -4 20 -10 0 -5 9
-10 20 -10 11 0 20 -4 20 -10 0 -5 8 -10 18 -10 10 0 24 -9 32 -20 8 -11 21
-20 30 -20 9 0 22 -9 30 -20 8 -11 20 -20 27 -20 16 0 123 -105 123 -120 0 -5
15 -25 33 -43 38 -36 67 -93 67 -130 0 -14 7 -27 15 -31 10 -3 15 -19 15 -46
0 -22 5 -40 10 -40 6 0 10 -61 10 -164 0 -99 -4 -167 -10 -171 -5 -3 -10 -31
-10 -61 0 -38 -4 -56 -14 -60 -9 -3 -17 -28 -21 -65 -4 -32 -11 -59 -16 -59
-5 0 -9 -7 -9 -15 0 -9 -6 -18 -14 -21 -8 -3 -17 -20 -20 -39 -4 -18 -13 -38
-21 -45 -8 -7 -15 -19 -15 -28 0 -15 -36 -52 -52 -52 -4 0 -8 -9 -8 -20 0 -21
-81 -110 -101 -110 -6 0 -24 -13 -39 -30 -15 -16 -34 -30 -42 -30 -7 0 -20 -9
-28 -20 -8 -11 -22 -20 -32 -20 -10 0 -18 -4 -18 -10 0 -5 -9 -10 -20 -10 -11
0 -20 -4 -20 -10 0 -5 -9 -10 -20 -10 -11 0 -20 -4 -20 -10 0 -5 -9 -10 -20
-10 -11 0 -20 -4 -20 -10 0 -5 -13 -10 -30 -10 -16 0 -30 -4 -30 -10 0 -5 -13
-10 -29 -10 -17 0 -33 -4 -36 -10 -3 -5 -19 -10 -36 -10 -16 0 -29 -4 -29 -10
0 -6 -27 -10 -60 -10 -33 0 -60 -4 -60 -10 0 -5 -22 -10 -50 -10 -27 0 -50 -4
-50 -10 0 -6 -50 -10 -129 -10 -76 0 -132 -4 -136 -10 -4 -6 -77 -10 -186 -10
-113 0 -179 4 -179 10 0 6 -40 10 -100 10 -60 0 -100 4 -100 10 0 6 -30 10
-70 10 -40 0 -70 4 -70 10 0 6 -22 10 -50 10 -27 0 -50 5 -50 10 0 6 -20 10
-45 10 -25 0 -45 5 -45 10 0 6 -13 10 -30 10 -16 0 -30 5 -30 10 0 6 -13 10
-30 10 -16 0 -30 5 -30 10 0 6 -13 10 -30 10 -16 0 -30 5 -30 10 0 6 -13 10
-30 10 -16 0 -30 5 -30 10 0 6 -9 10 -20 10 -11 0 -20 5 -20 10 0 6 -9 10 -20
10 -11 0 -20 5 -20 10 0 6 -9 10 -20 10 -11 0 -20 5 -20 10 0 6 -9 10 -20 10
-11 0 -20 5 -20 10 0 6 -9 10 -20 10 -11 0 -20 5 -20 10 0 6 -9 10 -20 10 -11
0 -25 9 -32 20 -7 11 -20 20 -29 20 -9 0 -23 7 -30 16 -7 9 -23 20 -36 25 -28
10 -29 19 -3 47 11 12 20 27 20 34 0 7 9 19 20 26 11 7 20 21 20 32 0 11 6 20
14 20 8 0 18 12 24 28 5 15 18 36 28 47 11 11 25 32 33 48 8 15 18 27 23 27 4
0 8 8 8 18 0 10 9 24 20 32 11 8 20 21 20 30 0 9 9 22 20 30 11 8 20 21 20 30
0 9 9 22 20 30 11 8 20 21 20 30 0 9 9 22 20 30 11 8 20 21 20 30 0 9 9 22 20
30 11 8 20 21 20 30 0 9 9 22 20 30 11 8 20 21 20 30 0 9 9 22 20 30 11 8 20
22 20 32 0 30 29 20 70 -22 21 -22 44 -40 50 -40 7 0 25 -13 40 -30 15 -16 35
-30 44 -30 9 0 16 -4 16 -10 0 -5 8 -10 18 -10 10 0 24 -9 32 -20 8 -11 22
-20 32 -20 10 0 18 -4 18 -10 0 -5 9 -10 20 -10 11 0 20 -4 20 -10 0 -5 9 -10
19 -10 11 0 23 -4 26 -10 3 -5 17 -10 30 -10 13 0 27 -4 30 -10 3 -5 17 -10
30 -10 13 0 27 -4 30 -10 3 -5 19 -10 36 -10 16 0 29 -4 29 -10 0 -5 23 -10
50 -10 28 0 50 -4 50 -10 0 -6 48 -10 125 -10 77 0 125 4 125 10 0 6 14 10 30
10 17 0 30 5 30 10 0 6 9 10 20 10 11 0 20 5 20 10 0 6 7 10 15 10 20 0 65 44
65 64 0 8 6 17 13 20 10 5 10 7 0 12 -7 3 -13 14 -13 25 0 10 -4 19 -10 19 -5
0 -10 6 -10 14 0 9 -15 17 -40 21 -22 4 -40 11 -40 16 0 5 -7 9 -15 9 -9 0
-18 7 -21 15 -4 9 -26 17 -54 21 -27 4 -51 13 -54 20 -3 8 -20 14 -41 14 -19
0 -35 5 -35 10 0 6 -20 10 -45 10 -25 0 -45 5 -45 10 0 6 -18 10 -40 10 -22 0
-40 5 -40 10 0 6 -13 10 -30 10 -16 0 -30 5 -30 10 0 6 -18 10 -40 10 -22 0
-40 5 -40 10 0 6 -13 10 -30 10 -16 0 -30 5 -30 10 0 6 -18 10 -40 10 -22 0
-40 5 -40 10 0 6 -13 10 -29 10 -17 0 -33 5 -36 10 -3 6 -17 10 -30 10 -13 0
-27 5 -30 10 -3 6 -17 10 -30 10 -13 0 -27 5 -30 10 -3 6 -15 10 -26 10 -10 0
-19 5 -19 10 0 6 -9 10 -20 10 -11 0 -20 5 -20 10 0 6 -9 10 -20 10 -11 0 -20
5 -20 10 0 6 -8 10 -18 10 -10 0 -24 9 -32 20 -8 11 -20 20 -27 20 -19 0 -183
166 -183 185 0 8 -4 15 -10 15 -5 0 -10 11 -10 25 0 14 -4 25 -10 25 -5 0 -10
9 -10 20 0 11 -4 20 -10 20 -5 0 -10 12 -10 26 0 15 -7 32 -17 39 -14 11 -16
36 -15 216 1 171 4 205 17 215 9 7 15 26 15 48 0 20 5 36 10 36 6 0 10 14 10
30 0 17 5 30 10 30 6 0 10 14 10 30 0 17 5 30 10 30 6 0 10 9 10 20 0 11 5 20
10 20 6 0 10 11 10 25 0 14 5 25 10 25 6 0 10 8 10 18 0 10 9 24 20 32 11 8
20 20 20 27 0 17 166 183 183 183 7 0 19 9 27 20 8 11 22 20 32 20 10 0 18 5
18 10 0 6 8 10 18 10 10 0 24 9 32 20 8 11 25 20 37 20 12 0 38 9 58 20 20 11
47 20 60 20 14 0 25 5 25 10 0 6 14 10 30 10 17 0 30 5 30 10 0 6 23 10 50 10
28 0 50 5 50 10 0 6 23 10 50 10 28 0 50 5 50 10 0 6 48 10 125 10 77 0 125 4
125 10 0 6 60 10 160 10 100 0 160 -4 160 -10z m2748 -577 l2 -503 495 0 495
0 0 505 0 505 550 0 550 0 0 -1420 0 -1420 -550 0 -550 0 0 550 0 550 -495 0
-495 0 -2 -547 -3 -548 -547 -3 -548 -2 0 1420 0 1420 548 -2 547 -3 3 -502z
m4832 102 l0 -405 -525 0 -525 0 0 -110 0 -110 485 0 485 0 -2 -397 -3 -398
-482 -3 -483 -2 0 -120 0 -120 525 0 525 0 0 -385 0 -385 -1085 0 -1085 0 0
1420 0 1420 1085 0 1085 0 0 -405z m2990 10 l0 -395 -345 0 -345 0 0 -1025 0
-1025 -555 0 -555 0 0 1025 0 1025 -355 0 -355 0 0 395 0 395 1255 0 1255 0 0
-395z m1690 -110 l0 -505 500 0 500 0 0 505 0 505 550 0 550 0 0 -1420 0
-1420 -550 0 -550 0 0 550 0 550 -500 0 -500 0 0 -550 0 -550 -545 0 -545 0 0
1420 0 1420 545 0 545 0 0 -505z"/>
</g>
</svg>
